G04*
G04 #@! TF.GenerationSoftware,Altium Limited,Altium Designer,23.6.0 (18)*
G04*
G04 Layer_Color=16711935*
%FSLAX24Y24*%
%MOIN*%
G70*
G04*
G04 #@! TF.SameCoordinates,E286C0A6-8AE3-4266-9951-E804B8659C5B*
G04*
G04*
G04 #@! TF.FilePolarity,Negative*
G04*
G01*
G75*
%ADD13C,0.1752*%
%ADD14C,0.0650*%
D13*
X-9000Y9000D02*
D03*
X9000Y-9000D02*
D03*
X-9000D02*
D03*
X9000Y9000D02*
D03*
D14*
X7500Y8500D02*
D03*
Y9500D02*
D03*
X1500Y9500D02*
D03*
X-1500D02*
D03*
X-7500D02*
D03*
X5500Y8500D02*
D03*
X4500Y9500D02*
D03*
X5500D02*
D03*
X500Y8500D02*
D03*
Y9500D02*
D03*
X1500Y8500D02*
D03*
X2500Y9500D02*
D03*
Y8500D02*
D03*
X3500Y9500D02*
D03*
Y8500D02*
D03*
X-3500D02*
D03*
Y9500D02*
D03*
X-2500D02*
D03*
X-500Y8500D02*
D03*
X6500D02*
D03*
X-2500D02*
D03*
X-1500D02*
D03*
X-500Y9500D02*
D03*
X-4500Y8500D02*
D03*
X-4500Y9500D02*
D03*
X-5500Y8500D02*
D03*
X-5500Y9500D02*
D03*
X-6500Y8500D02*
D03*
X-6500Y9500D02*
D03*
X-7500Y8500D02*
D03*
X4500Y8500D02*
D03*
X6500Y9500D02*
D03*
X8500Y7500D02*
D03*
X9500Y7500D02*
D03*
X9500Y6500D02*
D03*
X8500Y6500D02*
D03*
X9500Y5500D02*
D03*
X8500Y5500D02*
D03*
X9500Y4500D02*
D03*
X8500Y4500D02*
D03*
X8500Y500D02*
D03*
X9500D02*
D03*
X8500Y1500D02*
D03*
X9500Y1500D02*
D03*
X8500Y2500D02*
D03*
X9500Y2500D02*
D03*
Y3500D02*
D03*
X8500D02*
D03*
Y-3500D02*
D03*
X9500D02*
D03*
X8500Y-2500D02*
D03*
X9500D02*
D03*
X8500Y-1500D02*
D03*
X9500D02*
D03*
Y-500D02*
D03*
X8500D02*
D03*
X8500Y-7500D02*
D03*
X9500Y-7500D02*
D03*
X8500Y-6500D02*
D03*
X9500Y-6500D02*
D03*
X8500Y-5500D02*
D03*
X9500Y-5500D02*
D03*
Y-4500D02*
D03*
X8500Y-4500D02*
D03*
X-9500Y-4500D02*
D03*
X-8500D02*
D03*
Y-5500D02*
D03*
X-9500D02*
D03*
X-8500Y-6500D02*
D03*
X-9500D02*
D03*
X-8500Y-7500D02*
D03*
X-9500D02*
D03*
Y-500D02*
D03*
X-8500D02*
D03*
Y-1500D02*
D03*
X-9500D02*
D03*
X-8500Y-2500D02*
D03*
X-9500D02*
D03*
X-8500Y-3500D02*
D03*
X-9500D02*
D03*
Y3500D02*
D03*
X-8500D02*
D03*
Y2500D02*
D03*
X-9500D02*
D03*
X-8500Y1500D02*
D03*
X-9500D02*
D03*
X-8500Y500D02*
D03*
X-9500D02*
D03*
Y4500D02*
D03*
X-8500D02*
D03*
X-9500Y5500D02*
D03*
X-8500D02*
D03*
X-9500Y6500D02*
D03*
X-8500D02*
D03*
Y7500D02*
D03*
X-9500D02*
D03*
M02*
