M48
;Layer_Color=9474304
;FILE_FORMAT=2:4
INCH,LZ
;TYPE=PLATED
T1F00S00C0.0118
T2F00S00C0.0394
T3F00S00C0.1024
T5F00S00C0.1102
%
T01
X0Y-006
X002
X004
X006
Y-004
X004
X002
Y-002
X0
Y-004
X004Y-002
X006
X-002
Y-004
Y-006
X-004
X-006
Y-004
X-004
Y-002
X-006
Y0
Y002
Y004
X-004
X-002
Y006
X-004
X-006
X-004Y002
Y0
X-002
Y002
X0
Y004
Y006
X002
Y004
X004
X006
Y006
X004
Y002
X006
Y0
X004
X002
X0
X002Y002
T02
X0085Y-0075
X0095Y-0075
Y-0065
Y-0055
Y-0045
Y-0035
X0085
Y-0025
Y-0015
X0095
Y-0025
Y-0005
X0085
X0085Y-0045
X0085Y-0055
X0085Y-0065
X-0085Y-0065
Y-0055
Y-0045
X-0095
Y-0055
Y-0065
Y-0075
X-0085
Y-0035
Y-0025
Y-0015
Y-0005
X-0095
Y-0015
Y-0025
Y-0035
Y0005
Y0015
Y0025
Y0035
X-0085
Y0025
Y0015
Y0005
Y0045
X-0095
Y0055
X-0085
Y0065
X-0095
Y0075
X-0085
X-0075Y0085
X-0065Y0085
X-0055
X-0055Y0095
X-0045Y0095
X-0035
X-0025
X-0015Y0095
X-0005Y0095
Y0085
X-0015
X-0025
X-0035
X-0045Y0085
X-0065Y0095
X-0075Y0095
X0005Y0095
Y0085
X0015
X0025
Y0095
X0035
X0045
Y0085
X0035Y0085
X0055
X0065
X0075Y0085
Y0095
X0065
X0055
X0015Y0095
X0085Y0075
X0085Y0065
Y0055
X0095Y0055
X0095Y0065
X0095Y0075
X0095Y0045
X0085Y0045
X0085Y0035
X0095
Y0025
Y0015
Y0005
X0085
Y0015
Y0025
T03
X-009Y009
T05
X-009Y-009
X009Y009
M30
