G04*
G04 #@! TF.GenerationSoftware,Altium Limited,Altium Designer,23.6.0 (18)*
G04*
G04 Layer_Physical_Order=1*
G04 Layer_Color=255*
%FSLAX24Y24*%
%MOIN*%
G70*
G04*
G04 #@! TF.SameCoordinates,E286C0A6-8AE3-4266-9951-E804B8659C5B*
G04*
G04*
G04 #@! TF.FilePolarity,Positive*
G04*
G01*
G75*
%ADD15C,0.0118*%
G04:AMPARAMS|DCode=16|XSize=39.4mil|YSize=55.1mil|CornerRadius=9.8mil|HoleSize=0mil|Usage=FLASHONLY|Rotation=270.000|XOffset=0mil|YOffset=0mil|HoleType=Round|Shape=RoundedRectangle|*
%AMROUNDEDRECTD16*
21,1,0.0394,0.0354,0,0,270.0*
21,1,0.0197,0.0551,0,0,270.0*
1,1,0.0197,-0.0177,-0.0098*
1,1,0.0197,-0.0177,0.0098*
1,1,0.0197,0.0177,0.0098*
1,1,0.0197,0.0177,-0.0098*
%
%ADD16ROUNDEDRECTD16*%
G04:AMPARAMS|DCode=17|XSize=23.6mil|YSize=43.3mil|CornerRadius=3.5mil|HoleSize=0mil|Usage=FLASHONLY|Rotation=0.000|XOffset=0mil|YOffset=0mil|HoleType=Round|Shape=RoundedRectangle|*
%AMROUNDEDRECTD17*
21,1,0.0236,0.0362,0,0,0.0*
21,1,0.0165,0.0433,0,0,0.0*
1,1,0.0071,0.0083,-0.0181*
1,1,0.0071,-0.0083,-0.0181*
1,1,0.0071,-0.0083,0.0181*
1,1,0.0071,0.0083,0.0181*
%
%ADD17ROUNDEDRECTD17*%
G04:AMPARAMS|DCode=18|XSize=23.6mil|YSize=57.1mil|CornerRadius=5.9mil|HoleSize=0mil|Usage=FLASHONLY|Rotation=0.000|XOffset=0mil|YOffset=0mil|HoleType=Round|Shape=RoundedRectangle|*
%AMROUNDEDRECTD18*
21,1,0.0236,0.0453,0,0,0.0*
21,1,0.0118,0.0571,0,0,0.0*
1,1,0.0118,0.0059,-0.0226*
1,1,0.0118,-0.0059,-0.0226*
1,1,0.0118,-0.0059,0.0226*
1,1,0.0118,0.0059,0.0226*
%
%ADD18ROUNDEDRECTD18*%
%ADD19C,0.1732*%
%ADD20C,0.0236*%
%ADD21C,0.0630*%
G36*
X10400Y-10400D02*
X978D01*
X973Y-10396D01*
X957Y-10377D01*
X941Y-10341D01*
X942Y-10335D01*
X946Y-10317D01*
X947Y-10299D01*
Y-10210D01*
X950Y-10210D01*
X1005Y-10205D01*
X1060Y-10198D01*
X1114Y-10188D01*
X1168Y-10175D01*
X1221Y-10159D01*
X1274Y-10141D01*
X1325Y-10119D01*
X1375Y-10096D01*
X1424Y-10069D01*
X1471Y-10040D01*
X1517Y-10009D01*
X1561Y-9975D01*
X1600Y-9941D01*
X1603Y-9939D01*
X1643Y-9901D01*
X1643Y-9901D01*
X1700Y-9843D01*
X1702Y-9841D01*
X1738Y-9807D01*
X1778Y-9774D01*
X1820Y-9743D01*
X1864Y-9715D01*
X1909Y-9689D01*
X1956Y-9667D01*
X2004Y-9647D01*
X2053Y-9630D01*
X2104Y-9616D01*
X2154Y-9605D01*
X2206Y-9597D01*
X2258Y-9592D01*
X2307Y-9591D01*
X2310Y-9591D01*
X2429D01*
Y-9634D01*
X2430Y-9652D01*
X2434Y-9669D01*
X2441Y-9686D01*
X2451Y-9701D01*
X2462Y-9715D01*
X2476Y-9727D01*
X2491Y-9736D01*
X2508Y-9743D01*
X2525Y-9747D01*
X2543Y-9748D01*
X2709D01*
X2727Y-9747D01*
X2744Y-9743D01*
X2761Y-9736D01*
X2776Y-9727D01*
X2798Y-9715D01*
X2828Y-9715D01*
X2850Y-9727D01*
X2865Y-9736D01*
X2882Y-9743D01*
X2899Y-9747D01*
X2917Y-9748D01*
X3083D01*
X3101Y-9747D01*
X3118Y-9743D01*
X3135Y-9736D01*
X3150Y-9727D01*
X3172Y-9715D01*
X3202D01*
X3224Y-9727D01*
X3239Y-9736D01*
X3256Y-9743D01*
X3273Y-9747D01*
X3291Y-9748D01*
X3457D01*
X3475Y-9747D01*
X3492Y-9743D01*
X3509Y-9736D01*
X3524Y-9727D01*
X3538Y-9715D01*
X3549Y-9701D01*
X3559Y-9686D01*
X3566Y-9669D01*
X3570Y-9652D01*
X3571Y-9634D01*
Y-9591D01*
X4691D01*
X4697Y-9598D01*
X4715Y-9613D01*
X4734Y-9626D01*
X4755Y-9636D01*
X4777Y-9644D01*
X4800Y-9648D01*
X4823Y-9650D01*
X5177D01*
X5200Y-9648D01*
X5223Y-9644D01*
X5245Y-9636D01*
X5266Y-9626D01*
X5285Y-9613D01*
X5303Y-9598D01*
X5318Y-9581D01*
X5331Y-9561D01*
X5341Y-9540D01*
X5349Y-9518D01*
X5350Y-9512D01*
X5650D01*
X5651Y-9518D01*
X5659Y-9540D01*
X5669Y-9561D01*
X5682Y-9581D01*
X5697Y-9598D01*
X5715Y-9613D01*
X5734Y-9626D01*
X5755Y-9636D01*
X5777Y-9644D01*
X5800Y-9648D01*
X5823Y-9650D01*
X6177D01*
X6200Y-9648D01*
X6223Y-9644D01*
X6245Y-9636D01*
X6266Y-9626D01*
X6285Y-9613D01*
X6303Y-9598D01*
X6318Y-9581D01*
X6331Y-9561D01*
X6341Y-9540D01*
X6349Y-9518D01*
X6350Y-9512D01*
X6650D01*
X6651Y-9518D01*
X6659Y-9540D01*
X6669Y-9561D01*
X6682Y-9581D01*
X6697Y-9598D01*
X6715Y-9613D01*
X6734Y-9626D01*
X6755Y-9636D01*
X6777Y-9644D01*
X6800Y-9648D01*
X6823Y-9650D01*
X7177D01*
X7200Y-9648D01*
X7223Y-9644D01*
X7245Y-9636D01*
X7266Y-9626D01*
X7285Y-9613D01*
X7303Y-9598D01*
X7318Y-9581D01*
X7331Y-9561D01*
X7341Y-9540D01*
X7349Y-9518D01*
X7353Y-9496D01*
X7355Y-9472D01*
Y-9276D01*
X7353Y-9252D01*
X7349Y-9230D01*
X7341Y-9208D01*
X7331Y-9187D01*
X7318Y-9168D01*
X7303Y-9150D01*
X7285Y-9135D01*
X7266Y-9122D01*
X7245Y-9112D01*
X7223Y-9104D01*
X7200Y-9100D01*
X7177Y-9098D01*
X6823D01*
X6800Y-9100D01*
X6777Y-9104D01*
X6755Y-9112D01*
X6734Y-9122D01*
X6715Y-9135D01*
X6697Y-9150D01*
X6682Y-9168D01*
X6669Y-9187D01*
X6659Y-9208D01*
X6651Y-9230D01*
X6650Y-9236D01*
X6350D01*
X6349Y-9230D01*
X6341Y-9208D01*
X6331Y-9187D01*
X6318Y-9168D01*
X6303Y-9150D01*
X6285Y-9135D01*
X6266Y-9122D01*
X6245Y-9112D01*
X6223Y-9104D01*
X6200Y-9100D01*
X6177Y-9098D01*
X5823D01*
X5800Y-9100D01*
X5777Y-9104D01*
X5755Y-9112D01*
X5734Y-9122D01*
X5715Y-9135D01*
X5697Y-9150D01*
X5682Y-9168D01*
X5669Y-9187D01*
X5659Y-9208D01*
X5651Y-9230D01*
X5650Y-9236D01*
X5350D01*
X5349Y-9230D01*
X5341Y-9208D01*
X5331Y-9187D01*
X5318Y-9168D01*
X5303Y-9150D01*
X5285Y-9135D01*
X5266Y-9122D01*
X5245Y-9112D01*
X5223Y-9104D01*
X5200Y-9100D01*
X5177Y-9098D01*
X4823D01*
X4800Y-9100D01*
X4777Y-9104D01*
X4755Y-9112D01*
X4734Y-9122D01*
X4715Y-9135D01*
X4697Y-9150D01*
X4682Y-9168D01*
X4669Y-9187D01*
X4659Y-9208D01*
X4651Y-9230D01*
X4647Y-9252D01*
X4645Y-9276D01*
Y-9315D01*
X3571D01*
Y-9272D01*
X3570Y-9254D01*
X3566Y-9236D01*
X3559Y-9220D01*
X3549Y-9204D01*
X3538Y-9191D01*
X3524Y-9179D01*
X3509Y-9170D01*
X3492Y-9163D01*
X3475Y-9159D01*
X3457Y-9157D01*
X3291D01*
X3273Y-9159D01*
X3256Y-9163D01*
X3239Y-9170D01*
X3224Y-9179D01*
X3202Y-9191D01*
X3172D01*
X3150Y-9179D01*
X3135Y-9170D01*
X3118Y-9163D01*
X3101Y-9159D01*
X3083Y-9157D01*
X2917D01*
X2899Y-9159D01*
X2882Y-9163D01*
X2865Y-9170D01*
X2850Y-9179D01*
X2828Y-9191D01*
X2798Y-9191D01*
X2776Y-9179D01*
X2761Y-9170D01*
X2744Y-9163D01*
X2727Y-9159D01*
X2709Y-9157D01*
X2543D01*
X2525Y-9159D01*
X2508Y-9163D01*
X2491Y-9170D01*
X2476Y-9179D01*
X2462Y-9191D01*
X2451Y-9204D01*
X2441Y-9220D01*
X2434Y-9236D01*
X2430Y-9254D01*
X2429Y-9272D01*
Y-9315D01*
X2310D01*
Y-9315D01*
X2250Y-9316D01*
X2191Y-9321D01*
X2132Y-9329D01*
X2073Y-9339D01*
X2015Y-9353D01*
X1958Y-9370D01*
X1902Y-9390D01*
X1847Y-9413D01*
X1793Y-9439D01*
X1741Y-9467D01*
X1690Y-9498D01*
X1641Y-9532D01*
X1594Y-9568D01*
X1548Y-9607D01*
X1505Y-9648D01*
X1505Y-9648D01*
X1448Y-9706D01*
X1446Y-9708D01*
X1413Y-9738D01*
X1377Y-9768D01*
X1339Y-9796D01*
X1299Y-9822D01*
X1258Y-9845D01*
X1216Y-9866D01*
X1172Y-9884D01*
X1127Y-9900D01*
X1082Y-9912D01*
X1035Y-9922D01*
X1006Y-9927D01*
X947Y-9891D01*
Y-9846D01*
X946Y-9828D01*
X942Y-9811D01*
X937Y-9794D01*
X929Y-9777D01*
X919Y-9762D01*
X907Y-9749D01*
X893Y-9737D01*
X878Y-9727D01*
X862Y-9719D01*
X845Y-9713D01*
X827Y-9710D01*
X809Y-9708D01*
X691D01*
X673Y-9710D01*
X655Y-9713D01*
X638Y-9719D01*
X622Y-9727D01*
X607Y-9737D01*
X593Y-9749D01*
X581Y-9762D01*
X571Y-9777D01*
X563Y-9794D01*
X558Y-9811D01*
X554Y-9828D01*
X553Y-9846D01*
Y-9935D01*
X447D01*
Y-9846D01*
X446Y-9828D01*
X442Y-9811D01*
X437Y-9794D01*
X429Y-9777D01*
X419Y-9762D01*
X407Y-9749D01*
X393Y-9737D01*
X378Y-9727D01*
X362Y-9719D01*
X345Y-9713D01*
X327Y-9710D01*
X309Y-9708D01*
X191D01*
X173Y-9710D01*
X155Y-9713D01*
X138Y-9719D01*
X122Y-9727D01*
X107Y-9737D01*
X93Y-9749D01*
X81Y-9762D01*
X71Y-9777D01*
X63Y-9794D01*
X58Y-9811D01*
X54Y-9828D01*
X53Y-9846D01*
Y-9935D01*
X-53D01*
Y-9846D01*
X-54Y-9828D01*
X-58Y-9811D01*
X-63Y-9794D01*
X-71Y-9777D01*
X-81Y-9762D01*
X-93Y-9749D01*
X-107Y-9737D01*
X-122Y-9727D01*
X-138Y-9719D01*
X-155Y-9713D01*
X-173Y-9710D01*
X-191Y-9708D01*
X-309D01*
X-327Y-9710D01*
X-345Y-9713D01*
X-362Y-9719D01*
X-378Y-9727D01*
X-393Y-9737D01*
X-407Y-9749D01*
X-419Y-9762D01*
X-429Y-9777D01*
X-437Y-9794D01*
X-442Y-9811D01*
X-446Y-9828D01*
X-447Y-9846D01*
Y-9935D01*
X-553D01*
Y-9846D01*
X-554Y-9828D01*
X-558Y-9811D01*
X-563Y-9794D01*
X-571Y-9777D01*
X-581Y-9762D01*
X-593Y-9749D01*
X-607Y-9737D01*
X-622Y-9727D01*
X-638Y-9719D01*
X-655Y-9713D01*
X-673Y-9710D01*
X-691Y-9708D01*
X-809D01*
X-827Y-9710D01*
X-845Y-9713D01*
X-862Y-9719D01*
X-878Y-9727D01*
X-893Y-9737D01*
X-907Y-9749D01*
X-919Y-9762D01*
X-929Y-9777D01*
X-937Y-9794D01*
X-942Y-9811D01*
X-946Y-9828D01*
X-947Y-9846D01*
Y-10299D01*
X-946Y-10317D01*
X-942Y-10335D01*
X-941Y-10341D01*
X-957Y-10377D01*
X-973Y-10396D01*
X-978Y-10400D01*
X-10400D01*
Y10400D01*
X10400D01*
Y-10400D01*
D02*
G37*
%LPC*%
G36*
X7177Y-8330D02*
X7049D01*
Y-8577D01*
X7374D01*
Y-8528D01*
X7373Y-8505D01*
X7369Y-8484D01*
X7363Y-8462D01*
X7355Y-8442D01*
X7344Y-8423D01*
X7331Y-8405D01*
X7317Y-8388D01*
X7300Y-8373D01*
X7282Y-8361D01*
X7263Y-8350D01*
X7242Y-8341D01*
X7221Y-8335D01*
X7199Y-8332D01*
X7177Y-8330D01*
D02*
G37*
G36*
X6177D02*
X6049D01*
Y-8577D01*
X6374D01*
Y-8528D01*
X6373Y-8505D01*
X6369Y-8484D01*
X6363Y-8462D01*
X6355Y-8442D01*
X6344Y-8423D01*
X6331Y-8405D01*
X6317Y-8388D01*
X6300Y-8373D01*
X6282Y-8361D01*
X6263Y-8350D01*
X6242Y-8341D01*
X6221Y-8335D01*
X6199Y-8332D01*
X6177Y-8330D01*
D02*
G37*
G36*
X5177D02*
X5049D01*
Y-8577D01*
X5374D01*
Y-8528D01*
X5373Y-8505D01*
X5369Y-8484D01*
X5363Y-8462D01*
X5355Y-8442D01*
X5344Y-8423D01*
X5331Y-8405D01*
X5317Y-8388D01*
X5300Y-8373D01*
X5282Y-8361D01*
X5263Y-8350D01*
X5242Y-8341D01*
X5221Y-8335D01*
X5199Y-8332D01*
X5177Y-8330D01*
D02*
G37*
G36*
X5951D02*
X5823D01*
X5801Y-8332D01*
X5779Y-8335D01*
X5758Y-8341D01*
X5737Y-8350D01*
X5718Y-8361D01*
X5700Y-8373D01*
X5683Y-8388D01*
X5669Y-8405D01*
X5656Y-8423D01*
X5645Y-8442D01*
X5637Y-8462D01*
X5631Y-8484D01*
X5627Y-8505D01*
X5626Y-8528D01*
Y-8577D01*
X5951D01*
Y-8330D01*
D02*
G37*
G36*
X4951D02*
X4823D01*
X4801Y-8332D01*
X4779Y-8335D01*
X4758Y-8341D01*
X4737Y-8350D01*
X4718Y-8361D01*
X4700Y-8373D01*
X4683Y-8388D01*
X4669Y-8405D01*
X4656Y-8423D01*
X4645Y-8442D01*
X4637Y-8462D01*
X4631Y-8484D01*
X4627Y-8505D01*
X4626Y-8528D01*
Y-8577D01*
X4951D01*
Y-8330D01*
D02*
G37*
G36*
X6951D02*
X6823D01*
X6801Y-8332D01*
X6779Y-8335D01*
X6758Y-8341D01*
X6737Y-8350D01*
X6718Y-8361D01*
X6700Y-8373D01*
X6683Y-8388D01*
X6669Y-8405D01*
X6656Y-8423D01*
X6645Y-8442D01*
X6637Y-8462D01*
X6631Y-8484D01*
X6627Y-8505D01*
X6626Y-8528D01*
Y-8577D01*
X6951D01*
Y-8330D01*
D02*
G37*
G36*
X7374Y-8675D02*
X7049D01*
Y-8922D01*
X7177D01*
X7199Y-8920D01*
X7221Y-8917D01*
X7242Y-8911D01*
X7263Y-8902D01*
X7282Y-8891D01*
X7300Y-8879D01*
X7317Y-8864D01*
X7331Y-8847D01*
X7344Y-8829D01*
X7355Y-8810D01*
X7363Y-8790D01*
X7369Y-8768D01*
X7373Y-8746D01*
X7374Y-8724D01*
Y-8675D01*
D02*
G37*
G36*
X6951D02*
X6626D01*
Y-8724D01*
X6627Y-8746D01*
X6631Y-8768D01*
X6637Y-8790D01*
X6645Y-8810D01*
X6656Y-8829D01*
X6669Y-8847D01*
X6683Y-8864D01*
X6700Y-8879D01*
X6718Y-8891D01*
X6737Y-8902D01*
X6758Y-8911D01*
X6779Y-8917D01*
X6801Y-8920D01*
X6823Y-8922D01*
X6951D01*
Y-8675D01*
D02*
G37*
G36*
X6374D02*
X6049D01*
Y-8922D01*
X6177D01*
X6199Y-8920D01*
X6221Y-8917D01*
X6242Y-8911D01*
X6263Y-8902D01*
X6282Y-8891D01*
X6300Y-8879D01*
X6317Y-8864D01*
X6331Y-8847D01*
X6344Y-8829D01*
X6355Y-8810D01*
X6363Y-8790D01*
X6369Y-8768D01*
X6373Y-8746D01*
X6374Y-8724D01*
Y-8675D01*
D02*
G37*
G36*
X5951D02*
X5626D01*
Y-8724D01*
X5627Y-8746D01*
X5631Y-8768D01*
X5637Y-8790D01*
X5645Y-8810D01*
X5656Y-8829D01*
X5669Y-8847D01*
X5683Y-8864D01*
X5700Y-8879D01*
X5718Y-8891D01*
X5737Y-8902D01*
X5758Y-8911D01*
X5779Y-8917D01*
X5801Y-8920D01*
X5823Y-8922D01*
X5951D01*
Y-8675D01*
D02*
G37*
G36*
X5374D02*
X5049D01*
Y-8922D01*
X5177D01*
X5199Y-8920D01*
X5221Y-8917D01*
X5242Y-8911D01*
X5263Y-8902D01*
X5282Y-8891D01*
X5300Y-8879D01*
X5317Y-8864D01*
X5331Y-8847D01*
X5344Y-8829D01*
X5355Y-8810D01*
X5363Y-8790D01*
X5369Y-8768D01*
X5373Y-8746D01*
X5374Y-8724D01*
Y-8675D01*
D02*
G37*
G36*
X4951D02*
X4626D01*
Y-8724D01*
X4627Y-8746D01*
X4631Y-8768D01*
X4637Y-8790D01*
X4645Y-8810D01*
X4656Y-8829D01*
X4669Y-8847D01*
X4683Y-8864D01*
X4700Y-8879D01*
X4718Y-8891D01*
X4737Y-8902D01*
X4758Y-8911D01*
X4779Y-8917D01*
X4801Y-8920D01*
X4823Y-8922D01*
X4951D01*
Y-8675D01*
D02*
G37*
%LPD*%
D15*
X894Y-10073D02*
G03*
X1545Y-9803I0J921D01*
G01*
X2310Y-9453D02*
G03*
X1603Y-9746I0J-1000D01*
G01*
X4810Y-9453D02*
G03*
X5000Y-9374I0J269D01*
G01*
X750Y-10073D02*
X894D01*
X-250D02*
X750D01*
X-750D02*
X-250D01*
X1545Y-9803D02*
X1603Y-9746D01*
X2310Y-9453D02*
X2626D01*
X3000Y-9453D02*
X3374D01*
X2626D02*
X3000D01*
X3374D02*
X4810D01*
X6000Y-9374D02*
X7000D01*
X5000D02*
X6000D01*
X2626Y-9453D02*
X2626Y-9453D01*
D16*
X7000Y-8626D02*
D03*
Y-9374D02*
D03*
X6000Y-8626D02*
D03*
Y-9374D02*
D03*
X5000Y-8626D02*
D03*
Y-9374D02*
D03*
D17*
X3374Y-8547D02*
D03*
X3000D02*
D03*
X2626D02*
D03*
Y-9453D02*
D03*
X3000Y-9453D02*
D03*
X3374D02*
D03*
D18*
X750Y-7927D02*
D03*
X250Y-7927D02*
D03*
X-250Y-7927D02*
D03*
X-750D02*
D03*
X750Y-10073D02*
D03*
X250Y-10073D02*
D03*
X-250Y-10073D02*
D03*
X-750D02*
D03*
D19*
X-9000Y9000D02*
D03*
X9000Y-9000D02*
D03*
X-9000D02*
D03*
X9000Y9000D02*
D03*
D20*
X-2000Y-6000D02*
D03*
X0D02*
D03*
X2000D02*
D03*
X-6000D02*
D03*
X-4000D02*
D03*
X4000D02*
D03*
X6000D02*
D03*
X-2000Y-2000D02*
D03*
X0D02*
D03*
X2000D02*
D03*
Y-4000D02*
D03*
X0D02*
D03*
X-2000D02*
D03*
X-4000D02*
D03*
X4000D02*
D03*
X6000D02*
D03*
X-6000D02*
D03*
Y-2000D02*
D03*
X-4000D02*
D03*
X4000D02*
D03*
X6000D02*
D03*
X-2000Y6000D02*
D03*
X0D02*
D03*
X2000D02*
D03*
Y4000D02*
D03*
X0D02*
D03*
X-2000D02*
D03*
X-4000D02*
D03*
X4000D02*
D03*
X6000D02*
D03*
X-6000D02*
D03*
Y6000D02*
D03*
X-4000D02*
D03*
X4000D02*
D03*
X6000D02*
D03*
Y2000D02*
D03*
X4000D02*
D03*
X-4000D02*
D03*
X-6000D02*
D03*
Y0D02*
D03*
X6000D02*
D03*
X4000D02*
D03*
X-4000D02*
D03*
X-2000D02*
D03*
X0D02*
D03*
X2000D02*
D03*
Y2000D02*
D03*
X0D02*
D03*
X-2000D02*
D03*
D21*
X7500Y8500D02*
D03*
Y9500D02*
D03*
X1500Y9500D02*
D03*
X-1500D02*
D03*
X-7500D02*
D03*
X5500Y8500D02*
D03*
X4500Y9500D02*
D03*
X5500D02*
D03*
X500Y8500D02*
D03*
Y9500D02*
D03*
X1500Y8500D02*
D03*
X2500Y9500D02*
D03*
Y8500D02*
D03*
X3500Y9500D02*
D03*
Y8500D02*
D03*
X-3500D02*
D03*
Y9500D02*
D03*
X-2500D02*
D03*
X-500Y8500D02*
D03*
X6500D02*
D03*
X-2500D02*
D03*
X-1500D02*
D03*
X-500Y9500D02*
D03*
X-4500Y8500D02*
D03*
X-4500Y9500D02*
D03*
X-5500Y8500D02*
D03*
X-5500Y9500D02*
D03*
X-6500Y8500D02*
D03*
X-6500Y9500D02*
D03*
X-7500Y8500D02*
D03*
X4500Y8500D02*
D03*
X6500Y9500D02*
D03*
X8500Y7500D02*
D03*
X9500Y7500D02*
D03*
X9500Y6500D02*
D03*
X8500Y6500D02*
D03*
X9500Y5500D02*
D03*
X8500Y5500D02*
D03*
X9500Y4500D02*
D03*
X8500Y4500D02*
D03*
X8500Y500D02*
D03*
X9500D02*
D03*
X8500Y1500D02*
D03*
X9500Y1500D02*
D03*
X8500Y2500D02*
D03*
X9500Y2500D02*
D03*
Y3500D02*
D03*
X8500D02*
D03*
Y-3500D02*
D03*
X9500D02*
D03*
X8500Y-2500D02*
D03*
X9500D02*
D03*
X8500Y-1500D02*
D03*
X9500D02*
D03*
Y-500D02*
D03*
X8500D02*
D03*
X8500Y-7500D02*
D03*
X9500Y-7500D02*
D03*
X8500Y-6500D02*
D03*
X9500Y-6500D02*
D03*
X8500Y-5500D02*
D03*
X9500Y-5500D02*
D03*
Y-4500D02*
D03*
X8500Y-4500D02*
D03*
X-9500Y-4500D02*
D03*
X-8500D02*
D03*
Y-5500D02*
D03*
X-9500D02*
D03*
X-8500Y-6500D02*
D03*
X-9500D02*
D03*
X-8500Y-7500D02*
D03*
X-9500D02*
D03*
Y-500D02*
D03*
X-8500D02*
D03*
Y-1500D02*
D03*
X-9500D02*
D03*
X-8500Y-2500D02*
D03*
X-9500D02*
D03*
X-8500Y-3500D02*
D03*
X-9500D02*
D03*
Y3500D02*
D03*
X-8500D02*
D03*
Y2500D02*
D03*
X-9500D02*
D03*
X-8500Y1500D02*
D03*
X-9500D02*
D03*
X-8500Y500D02*
D03*
X-9500D02*
D03*
Y4500D02*
D03*
X-8500D02*
D03*
X-9500Y5500D02*
D03*
X-8500D02*
D03*
X-9500Y6500D02*
D03*
X-8500D02*
D03*
Y7500D02*
D03*
X-9500D02*
D03*
M02*
