%TF.GenerationSoftware,Altium Limited,Altium Designer,21.2.2 (38)*%
G04 Layer_Color=0*
%FSLAX45Y45*%
%MOMM*%
%TF.SameCoordinates,CFC194E4-F73D-46A4-AAE2-90500156CD02*%
%TF.FilePolarity,Positive*%
%TF.FileFunction,Plated,1,2,PTH,Drill*%
G01*
G75*
%TA.AperFunction,OtherDrill,Pad Free-1 (-22.86mm,22.86mm)*%
%ADD16C,2.60000*%
%TA.AperFunction,OtherDrill,Pad Free-3 (22.86mm,-22.86mm)*%
G04:AMPARAMS|DCode=17|XSize=2.8mm|YSize=2.6mm|CornerRadius=0mm|HoleSize=0mm|Usage=FLASHONLY|Rotation=135.000|XOffset=0mm|YOffset=0mm|HoleType=Round|Shape=Round|*
%AMOVALD17*
21,1,0.20000,2.60000,0.00000,0.00000,135.0*
1,1,2.60000,0.07071,-0.07071*
1,1,2.60000,-0.07071,0.07071*
%
%ADD17OVALD17*%

%TA.AperFunction,OtherDrill,Pad Free-4 (-22.86mm,-22.86mm)*%
%ADD18C,2.80000*%
%TA.AperFunction,OtherDrill,Pad Free-2 (22.86mm,22.86mm)*%
%ADD19C,2.80000*%
%TA.AperFunction,ViaDrill,NotFilled*%
%ADD20C,0.30000*%
%ADD21C,1.00000*%
D16*
X-2286000Y2286000D02*
D03*
D17*
X2286000Y-2286000D02*
D03*
D18*
X-2286000Y-2286000D02*
D03*
D19*
X2286000Y2286000D02*
D03*
D20*
X-1524000Y-1524000D02*
D03*
X-1016000D02*
D03*
X-508000D02*
D03*
X0D02*
D03*
Y-1016000D02*
D03*
Y-508000D02*
D03*
X-508000D02*
D03*
Y-1016000D02*
D03*
X-1016000D02*
D03*
X-1524000D02*
D03*
Y-508000D02*
D03*
X-1016000D02*
D03*
Y0D02*
D03*
X-1524000D02*
D03*
X-508000D02*
D03*
X0D02*
D03*
X508000D02*
D03*
Y-508000D02*
D03*
Y-1016000D02*
D03*
Y-1524000D02*
D03*
X1016000D02*
D03*
X1524000D02*
D03*
Y-1016000D02*
D03*
X1016000D02*
D03*
Y-508000D02*
D03*
X1524000D02*
D03*
Y0D02*
D03*
X1016000D02*
D03*
Y508000D02*
D03*
Y1016000D02*
D03*
X508000D02*
D03*
Y1524000D02*
D03*
X1016000D02*
D03*
X1524000D02*
D03*
Y1016000D02*
D03*
Y508000D02*
D03*
X508000D02*
D03*
X0D02*
D03*
Y1016000D02*
D03*
Y1524000D02*
D03*
X-508000D02*
D03*
Y1016000D02*
D03*
X-1016000D02*
D03*
X-1524000D02*
D03*
Y1524000D02*
D03*
X-1016000D02*
D03*
Y508000D02*
D03*
X-1524000D02*
D03*
X-508000D02*
D03*
D21*
X-2413000Y-1905000D02*
D03*
Y-1651000D02*
D03*
Y-1397000D02*
D03*
Y-1143000D02*
D03*
X-2159000D02*
D03*
Y-1397000D02*
D03*
Y-1651000D02*
D03*
Y-1905000D02*
D03*
Y-889000D02*
D03*
Y-635000D02*
D03*
Y-381000D02*
D03*
Y-127000D02*
D03*
X-2413000D02*
D03*
Y-381000D02*
D03*
Y-635000D02*
D03*
Y-889000D02*
D03*
X2159000D02*
D03*
X2413000D02*
D03*
Y-1142999D02*
D03*
X2159001Y-1143000D02*
D03*
X2158999Y-1397000D02*
D03*
X2159000Y-1651000D02*
D03*
X2413000Y-1651000D02*
D03*
Y-1905000D02*
D03*
X2159000Y-1905000D02*
D03*
X2413000Y-1397000D02*
D03*
Y-635000D02*
D03*
Y-381001D02*
D03*
X2159000D02*
D03*
Y-635000D02*
D03*
Y-127000D02*
D03*
X2413000D02*
D03*
Y127000D02*
D03*
X2159000D02*
D03*
Y381000D02*
D03*
Y634999D02*
D03*
Y889000D02*
D03*
X2159000Y1143000D02*
D03*
X2413000Y1143000D02*
D03*
Y889000D02*
D03*
Y635000D02*
D03*
Y381000D02*
D03*
X2413000Y1397000D02*
D03*
X2159000Y1397000D02*
D03*
Y1651000D02*
D03*
X2413000Y1651000D02*
D03*
X2413000Y1905000D02*
D03*
X2158999Y1905000D02*
D03*
X1905000Y2159000D02*
D03*
Y2413000D02*
D03*
X1651000D02*
D03*
X1397000D02*
D03*
X1397000Y2159000D02*
D03*
X1651000D02*
D03*
X1143000Y2159000D02*
D03*
Y2413000D02*
D03*
X889000D02*
D03*
X635000D02*
D03*
Y2159000D02*
D03*
X381000D02*
D03*
X127000D02*
D03*
Y2413000D02*
D03*
X381000Y2413000D02*
D03*
X889000Y2159000D02*
D03*
X-127000D02*
D03*
Y2413000D02*
D03*
X-381000Y2413000D02*
D03*
X-635000Y2413000D02*
D03*
X-889000D02*
D03*
Y2159000D02*
D03*
X-1143000Y2159000D02*
D03*
X-1143000Y2413000D02*
D03*
X-1397000Y2413000D02*
D03*
X-1397000Y2159000D02*
D03*
X-1651000D02*
D03*
X-1651000Y2413000D02*
D03*
X-1905000Y2413000D02*
D03*
X-1905000Y2159000D02*
D03*
X-2159000Y1905000D02*
D03*
Y1651000D02*
D03*
Y1397000D02*
D03*
Y1143000D02*
D03*
Y889000D02*
D03*
X-2413000D02*
D03*
Y635000D02*
D03*
X-2159000D02*
D03*
Y381000D02*
D03*
X-2413000D02*
D03*
Y127000D02*
D03*
X-2159000D02*
D03*
X-2413000Y1143000D02*
D03*
Y1397000D02*
D03*
Y1651000D02*
D03*
Y1905000D02*
D03*
X-635000Y2159000D02*
D03*
X-381000D02*
D03*
%TF.MD5,4d657d19c869b315ddd9cd7837ea229d*%
M02*
