%TF.GenerationSoftware,Altium Limited,Altium Designer,21.2.2 (38)*%
G04 Layer_Color=8388736*
%FSLAX45Y45*%
%MOMM*%
%TF.SameCoordinates,CFC194E4-F73D-46A4-AAE2-90500156CD02*%
%TF.FilePolarity,Negative*%
%TF.FileFunction,Soldermask,Top*%
G01*
G75*
%TA.AperFunction,ViaPad*%
%ADD13C,4.45000*%
%ADD14C,1.65000*%
D13*
X-2286000Y-2286000D02*
D03*
X2286000D02*
D03*
Y2286000D02*
D03*
X-2286000D02*
D03*
D14*
X-2413000Y-1905000D02*
D03*
Y-1651000D02*
D03*
Y-1397000D02*
D03*
Y-1143000D02*
D03*
X-2159000D02*
D03*
Y-1397000D02*
D03*
Y-1651000D02*
D03*
Y-1905000D02*
D03*
Y-889000D02*
D03*
Y-635000D02*
D03*
Y-381000D02*
D03*
Y-127000D02*
D03*
X-2413000D02*
D03*
Y-381000D02*
D03*
Y-635000D02*
D03*
Y-889000D02*
D03*
X2159000D02*
D03*
X2413000D02*
D03*
Y-1142999D02*
D03*
X2159001Y-1143000D02*
D03*
X2158999Y-1397000D02*
D03*
X2159000Y-1651000D02*
D03*
X2413000Y-1651000D02*
D03*
Y-1905000D02*
D03*
X2159000Y-1905000D02*
D03*
X2413000Y-1397000D02*
D03*
Y-635000D02*
D03*
Y-381001D02*
D03*
X2159000D02*
D03*
Y-635000D02*
D03*
Y-127000D02*
D03*
X2413000D02*
D03*
Y127000D02*
D03*
X2159000D02*
D03*
Y381000D02*
D03*
Y634999D02*
D03*
Y889000D02*
D03*
X2159000Y1143000D02*
D03*
X2413000Y1143000D02*
D03*
Y889000D02*
D03*
Y635000D02*
D03*
Y381000D02*
D03*
X2413000Y1397000D02*
D03*
X2159000Y1397000D02*
D03*
Y1651000D02*
D03*
X2413000Y1651000D02*
D03*
X2413000Y1905000D02*
D03*
X2158999Y1905000D02*
D03*
X1905000Y2159000D02*
D03*
Y2413000D02*
D03*
X1651000D02*
D03*
X1397000D02*
D03*
X1397000Y2159000D02*
D03*
X1651000D02*
D03*
X1143000Y2159000D02*
D03*
Y2413000D02*
D03*
X889000D02*
D03*
X635000D02*
D03*
Y2159000D02*
D03*
X381000D02*
D03*
X127000D02*
D03*
Y2413000D02*
D03*
X381000Y2413000D02*
D03*
X889000Y2159000D02*
D03*
X-127000D02*
D03*
Y2413000D02*
D03*
X-381000Y2413000D02*
D03*
X-635000Y2413000D02*
D03*
X-889000D02*
D03*
Y2159000D02*
D03*
X-1143000Y2159000D02*
D03*
X-1143000Y2413000D02*
D03*
X-1397000Y2413000D02*
D03*
X-1397000Y2159000D02*
D03*
X-1651000D02*
D03*
X-1651000Y2413000D02*
D03*
X-1905000Y2413000D02*
D03*
X-1905000Y2159000D02*
D03*
X-2159000Y1905000D02*
D03*
Y1651000D02*
D03*
Y1397000D02*
D03*
Y1143000D02*
D03*
Y889000D02*
D03*
X-2413000D02*
D03*
Y635000D02*
D03*
X-2159000D02*
D03*
Y381000D02*
D03*
X-2413000D02*
D03*
Y127000D02*
D03*
X-2159000D02*
D03*
X-2413000Y1143000D02*
D03*
Y1397000D02*
D03*
Y1651000D02*
D03*
Y1905000D02*
D03*
X-635000Y2159000D02*
D03*
X-381000D02*
D03*
%TF.MD5,f86d8c879e0b6236ae72181053a9e408*%
M02*
